{
    "asset" : {
        "generator" : "Khronos glTF Blender I/O v1.5.17",
        "version" : "2.0"
    },
    "scene" : 0,
    "scenes" : [
        {
            "name" : "Scene",
            "nodes" : [
                0,
                1,
                2,
                3,
                4,
                5
            ]
        }
    ],
    "nodes" : [
        {
            "mesh" : 0,
            "name" : "Sumatera",
            "scale" : [
                81.5531234741211,
                81.5531234741211,
                81.5531234741211
            ],
            "translation" : [
                -6.217532634735107,
                0,
                1.6301515102386475
            ]
        },
        {
            "mesh" : 1,
            "name" : "Kalimantan",
            "scale" : [
                81.5531234741211,
                81.5531234741211,
                81.5531234741211
            ],
            "translation" : [
                -6.217532634735107,
                0,
                1.6301515102386475
            ]
        },
        {
            "mesh" : 2,
            "name" : "Sulawesi",
            "scale" : [
                81.5531234741211,
                81.5531234741211,
                81.5531234741211
            ],
            "translation" : [
                -6.217532634735107,
                0,
                1.6301515102386475
            ]
        },
        {
            "mesh" : 3,
            "name" : "Papua",
            "scale" : [
                81.5531234741211,
                81.5531234741211,
                81.5531234741211
            ],
            "translation" : [
                -6.217532634735107,
                0,
                1.6301515102386475
            ]
        },
        {
            "mesh" : 4,
            "name" : "Jawa",
            "scale" : [
                81.5531234741211,
                81.5531234741211,
                81.5531234741211
            ],
            "translation" : [
                -6.217532634735107,
                0,
                1.6301515102386475
            ]
        },
        {
            "mesh" : 5,
            "name" : "Bali dan Nusa Tenggara",
            "scale" : [
                81.5531234741211,
                81.5531234741211,
                81.5531234741211
            ],
            "translation" : [
                -6.217532634735107,
                0,
                1.6301515102386475
            ]
        }
    ],
    "materials" : [
        {
            "doubleSided" : true,
            "name" : "Sumatera",
            "pbrMetallicRoughness" : {
                "baseColorFactor" : [
                    0,
                    0,
                    0,
                    1
                ],
                "metallicFactor" : 0,
                "roughnessFactor" : 0.4000000059604645
            }
        },
        {
            "doubleSided" : true,
            "name" : "Kalimantan",
            "pbrMetallicRoughness" : {
                "baseColorFactor" : [
                    0,
                    0,
                    0,
                    1
                ],
                "metallicFactor" : 0,
                "roughnessFactor" : 0.4000000059604645
            }
        },
        {
            "doubleSided" : true,
            "name" : "Sulawesi",
            "pbrMetallicRoughness" : {
                "baseColorFactor" : [
                    0,
                    0,
                    0,
                    1
                ],
                "metallicFactor" : 0,
                "roughnessFactor" : 0.4000000059604645
            }
        },
        {
            "doubleSided" : true,
            "name" : "Papua",
            "pbrMetallicRoughness" : {
                "baseColorFactor" : [
                    0,
                    0,
                    0,
                    1
                ],
                "metallicFactor" : 0,
                "roughnessFactor" : 0.4000000059604645
            }
        },
        {
            "doubleSided" : true,
            "name" : "Jawa",
            "pbrMetallicRoughness" : {
                "baseColorFactor" : [
                    0,
                    0,
                    0,
                    1
                ],
                "metallicFactor" : 0,
                "roughnessFactor" : 0.4000000059604645
            }
        },
        {
            "doubleSided" : true,
            "name" : "Bali dan Nusa Tenggara",
            "pbrMetallicRoughness" : {
                "baseColorFactor" : [
                    0,
                    0,
                    0,
                    1
                ],
                "metallicFactor" : 0,
                "roughnessFactor" : 0.4000000059604645
            }
        }
    ],
    "meshes" : [
        {
            "name" : "Curve.001",
            "primitives" : [
                {
                    "attributes" : {
                        "POSITION" : 0,
                        "NORMAL" : 1,
                        "TEXCOORD_0" : 2
                    },
                    "indices" : 3,
                    "material" : 0
                }
            ]
        },
        {
            "name" : "Curve.003",
            "primitives" : [
                {
                    "attributes" : {
                        "POSITION" : 4,
                        "NORMAL" : 5,
                        "TEXCOORD_0" : 6
                    },
                    "indices" : 7,
                    "material" : 1
                }
            ]
        },
        {
            "name" : "Curve.011",
            "primitives" : [
                {
                    "attributes" : {
                        "POSITION" : 8,
                        "NORMAL" : 9,
                        "TEXCOORD_0" : 10
                    },
                    "indices" : 11,
                    "material" : 2
                }
            ]
        },
        {
            "name" : "Curve.020",
            "primitives" : [
                {
                    "attributes" : {
                        "POSITION" : 12,
                        "NORMAL" : 13,
                        "TEXCOORD_0" : 14
                    },
                    "indices" : 15,
                    "material" : 3
                }
            ]
        },
        {
            "name" : "Curve.049",
            "primitives" : [
                {
                    "attributes" : {
                        "POSITION" : 16,
                        "NORMAL" : 17,
                        "TEXCOORD_0" : 18
                    },
                    "indices" : 19,
                    "material" : 4
                }
            ]
        },
        {
            "name" : "Curve.055",
            "primitives" : [
                {
                    "attributes" : {
                        "POSITION" : 20,
                        "NORMAL" : 21,
                        "TEXCOORD_0" : 22
                    },
                    "indices" : 23,
                    "material" : 5
                }
            ]
        }
    ],
    "accessors" : [
        {
            "bufferView" : 0,
            "componentType" : 5126,
            "count" : 16797,
            "max" : [
                0.03996561840176582,
                0.003095788648352027,
                -0.013846841640770435
            ],
            "min" : [
                0.00024890934582799673,
                0,
                -0.049432288855314255
            ],
            "type" : "VEC3"
        },
        {
            "bufferView" : 1,
            "componentType" : 5126,
            "count" : 16797,
            "type" : "VEC3"
        },
        {
            "bufferView" : 2,
            "componentType" : 5126,
            "count" : 16797,
            "type" : "VEC2"
        },
        {
            "bufferView" : 3,
            "componentType" : 5123,
            "count" : 26316,
            "type" : "SCALAR"
        },
        {
            "bufferView" : 4,
            "componentType" : 5126,
            "count" : 7856,
            "max" : [
                0.07268153131008148,
                0.003095788648352027,
                -0.018703725188970566
            ],
            "min" : [
                0.042127907276153564,
                0,
                -0.044335391372442245
            ],
            "type" : "VEC3"
        },
        {
            "bufferView" : 5,
            "componentType" : 5126,
            "count" : 7856,
            "type" : "VEC3"
        },
        {
            "bufferView" : 6,
            "componentType" : 5126,
            "count" : 7856,
            "type" : "VEC2"
        },
        {
            "bufferView" : 7,
            "componentType" : 5123,
            "count" : 12252,
            "type" : "SCALAR"
        },
        {
            "bufferView" : 8,
            "componentType" : 5126,
            "count" : 14132,
            "max" : [
                0.09623921662569046,
                0.003095788648352027,
                -0.011751859448850155
            ],
            "min" : [
                0.07156143337488174,
                0,
                -0.045533664524555206
            ],
            "type" : "VEC3"
        },
        {
            "bufferView" : 9,
            "componentType" : 5126,
            "count" : 14132,
            "type" : "VEC3"
        },
        {
            "bufferView" : 10,
            "componentType" : 5126,
            "count" : 14132,
            "type" : "VEC2"
        },
        {
            "bufferView" : 11,
            "componentType" : 5123,
            "count" : 22212,
            "type" : "SCALAR"
        },
        {
            "bufferView" : 12,
            "componentType" : 5126,
            "count" : 18505,
            "max" : [
                0.1386067271232605,
                0.003095788648352027,
                -0.005599277559667826
            ],
            "min" : [
                0.09377658367156982,
                0,
                -0.03987450897693634
            ],
            "type" : "VEC3"
        },
        {
            "bufferView" : 13,
            "componentType" : 5126,
            "count" : 18505,
            "type" : "VEC3"
        },
        {
            "bufferView" : 14,
            "componentType" : 5126,
            "count" : 18505,
            "type" : "VEC2"
        },
        {
            "bufferView" : 15,
            "componentType" : 5123,
            "count" : 29376,
            "type" : "SCALAR"
        },
        {
            "bufferView" : 16,
            "componentType" : 5126,
            "count" : 5257,
            "max" : [
                0.05911880359053612,
                0.003095788648352027,
                -0.0051066335290670395
            ],
            "min" : [
                0.030438199639320374,
                0,
                -0.01369788870215416
            ],
            "type" : "VEC3"
        },
        {
            "bufferView" : 17,
            "componentType" : 5126,
            "count" : 5257,
            "type" : "VEC3"
        },
        {
            "bufferView" : 18,
            "componentType" : 5126,
            "count" : 5257,
            "type" : "VEC2"
        },
        {
            "bufferView" : 19,
            "componentType" : 5123,
            "count" : 8328,
            "type" : "SCALAR"
        },
        {
            "bufferView" : 20,
            "componentType" : 5126,
            "count" : 9147,
            "max" : [
                0.09769690036773682,
                0.003095788648352027,
                -9.95445589069277e-05
            ],
            "min" : [
                0.05913163349032402,
                0,
                -0.00882664043456316
            ],
            "type" : "VEC3"
        },
        {
            "bufferView" : 21,
            "componentType" : 5126,
            "count" : 9147,
            "type" : "VEC3"
        },
        {
            "bufferView" : 22,
            "componentType" : 5126,
            "count" : 9147,
            "type" : "VEC2"
        },
        {
            "bufferView" : 23,
            "componentType" : 5123,
            "count" : 14508,
            "type" : "SCALAR"
        }
    ],
    "bufferViews" : [
        {
            "buffer" : 0,
            "byteLength" : 201564,
            "byteOffset" : 0
        },
        {
            "buffer" : 0,
            "byteLength" : 201564,
            "byteOffset" : 201564
        },
        {
            "buffer" : 0,
            "byteLength" : 134376,
            "byteOffset" : 403128
        },
        {
            "buffer" : 0,
            "byteLength" : 52632,
            "byteOffset" : 537504
        },
        {
            "buffer" : 0,
            "byteLength" : 94272,
            "byteOffset" : 590136
        },
        {
            "buffer" : 0,
            "byteLength" : 94272,
            "byteOffset" : 684408
        },
        {
            "buffer" : 0,
            "byteLength" : 62848,
            "byteOffset" : 778680
        },
        {
            "buffer" : 0,
            "byteLength" : 24504,
            "byteOffset" : 841528
        },
        {
            "buffer" : 0,
            "byteLength" : 169584,
            "byteOffset" : 866032
        },
        {
            "buffer" : 0,
            "byteLength" : 169584,
            "byteOffset" : 1035616
        },
        {
            "buffer" : 0,
            "byteLength" : 113056,
            "byteOffset" : 1205200
        },
        {
            "buffer" : 0,
            "byteLength" : 44424,
            "byteOffset" : 1318256
        },
        {
            "buffer" : 0,
            "byteLength" : 222060,
            "byteOffset" : 1362680
        },
        {
            "buffer" : 0,
            "byteLength" : 222060,
            "byteOffset" : 1584740
        },
        {
            "buffer" : 0,
            "byteLength" : 148040,
            "byteOffset" : 1806800
        },
        {
            "buffer" : 0,
            "byteLength" : 58752,
            "byteOffset" : 1954840
        },
        {
            "buffer" : 0,
            "byteLength" : 63084,
            "byteOffset" : 2013592
        },
        {
            "buffer" : 0,
            "byteLength" : 63084,
            "byteOffset" : 2076676
        },
        {
            "buffer" : 0,
            "byteLength" : 42056,
            "byteOffset" : 2139760
        },
        {
            "buffer" : 0,
            "byteLength" : 16656,
            "byteOffset" : 2181816
        },
        {
            "buffer" : 0,
            "byteLength" : 109764,
            "byteOffset" : 2198472
        },
        {
            "buffer" : 0,
            "byteLength" : 109764,
            "byteOffset" : 2308236
        },
        {
            "buffer" : 0,
            "byteLength" : 73176,
            "byteOffset" : 2418000
        },
        {
            "buffer" : 0,
            "byteLength" : 29016,
            "byteOffset" : 2491176
        }
    ],
    "buffers" : [
        {
            "byteLength" : 2520192,
            "uri" : "data:application/octet-stream;base64,"
        }
    ]
}
